# xmcd
#
# Track frame offsets:
#	150
#	18685
#	40585
#	54867
#	68782
#	83685
#	101845
#	124497
#	142352
#	159940
#	171085
#
# Disc length: 2600 seconds
#
# Revision: 0
# Processed by: cddbd v1.4PL0 Copyright (c) Steve Scherf et al.
# Submitted via: EasyCDDAExtractor 4.6.0.1
#
DISCID=930a260b
DTITLE=Helge Tallqvist and Deep Blue Divers - Something Blue
DYEAR=2002
DGENRE=Blues
TTITLE0=Don't You Ever
TTITLE1=Ode To Billie Joe
TTITLE2=Had You Told It Like It Was
TTITLE3=Carne Tremula
TTITLE4=Into The Blue
TTITLE5=Mobilize
TTITLE6=Monkey On A Limb
TTITLE7=Copy Cat
TTITLE8=Do The Right Thing
TTITLE9=Someother Day, Someother Time
TTITLE10=Blueso Nova
EXTD=
EXTT0=
EXTT1=
EXTT2=
EXTT3=
EXTT4=
EXTT5=
EXTT6=
EXTT7=
EXTT8=
EXTT9=
EXTT10=
PLAYORDER=
